# Blender 5.0.1
# www.blender.org
mtllib sharkie_V1.mtl
o Cylinder
v 0.398973 3.373333 -0.398973
v 0.684262 0.944099 -0.242949
v 0.398973 3.373333 0.398973
v 0.684262 0.944099 0.182894
v -0.398973 3.373333 -0.398973
v -0.104904 1.497859 -0.844089
v -0.398973 3.373333 0.398973
v -0.052795 1.486514 0.784035
v 0.684262 1.741818 0.182894
v -0.052795 2.456053 0.784035
v 0.684262 1.741818 -0.242949
v -0.104904 2.410521 -0.844089
v 0.185387 2.456053 0.784035
v 0.185387 1.486514 0.784035
v 0.228337 2.410521 -0.844089
v 0.228337 1.497859 -0.844089
v 2.118475 1.460567 -0.026161
v 2.143760 1.374614 -0.026600
v 2.151525 1.473539 -0.081759
v 2.151525 1.371382 -0.081759
v 1.530678 1.068787 -0.176387
v 1.663629 1.128480 0.074518
v 1.591558 1.253759 0.073994
v 1.558509 1.240787 -0.176387
v 2.118475 1.460567 -0.051139
v 2.143760 1.374614 -0.050753
v 1.663629 1.128480 -0.135642
v 1.591558 1.253759 -0.135220
v 2.151525 1.473539 -0.081759
v 2.151525 1.371382 -0.081759
v 1.530678 1.068787 -0.176387
v 1.558509 1.240787 -0.176387
v 2.151525 1.473539 -0.081759
v 2.151525 1.473539 0.003613
v 1.558509 1.240787 -0.176387
v 1.558509 1.240787 0.116332
v 2.478467 2.332101 -0.051139
v 2.478467 2.332101 -0.026161
v 1.765337 1.608839 -0.135220
v 1.765337 1.608839 0.073994
v 2.151525 1.371382 0.003613
v 2.151525 1.371382 -0.081759
v 1.530678 1.068787 -0.176387
v 1.530678 1.068787 0.116332
v 2.151525 1.371382 0.003613
v 2.151525 1.371382 -0.081759
v 1.530678 1.068787 -0.176387
v 1.530678 1.068787 0.116332
v 2.650218 1.221134 -0.026600
v 2.650218 1.221134 -0.050753
v 1.974918 1.014771 -0.135642
v 1.974918 1.014771 0.074518
v 0.684262 2.800967 0.784035
v -0.541118 2.800967 0.784035
v -0.108568 0.137808 0.553489
v 0.251711 0.137808 0.553489
v 0.185387 2.049846 1.387242
v -0.052795 2.049846 1.387242
v -0.052795 1.503875 1.631339
v 0.185387 1.503875 1.631339
v 0.185387 2.374037 1.023900
v 0.185387 1.585422 1.045448
v -0.052795 2.374037 1.023900
v -0.052795 1.585422 1.045448
v 0.684262 2.800967 -0.844089
v 0.256138 0.137808 -0.613544
v -0.541118 2.800967 -0.844089
v -0.112994 0.137808 -0.613544
v 0.228337 2.355515 -1.132309
v 0.228337 1.609653 -1.219315
v -0.104904 2.355515 -1.132309
v -0.104904 1.609653 -1.219315
v 0.228337 2.038478 -1.473087
v 0.228337 1.529273 -1.693274
v -0.104904 2.038478 -1.473087
v -0.104904 1.529273 -1.693274
v -0.541118 0.800967 0.784035
v 0.684262 0.800967 0.784035
v 0.684262 0.800967 -0.844089
v -0.541118 0.800967 -0.844089
v 0.684262 2.800967 -0.030027
v 0.684262 0.800967 -0.030027
v -0.541118 2.800967 -0.030027
v -0.541118 0.800967 -0.030027
v 0.398973 3.373333 0.000000
v -0.398973 3.373333 0.000000
v 0.684262 1.741818 -0.030027
v 0.684262 0.944099 -0.030027
v 2.151525 1.473539 -0.039073
v 2.151525 1.371382 -0.039073
v 1.558509 1.240787 -0.030027
v 1.530678 1.068787 -0.030027
v 2.118475 1.460567 -0.038650
v 1.591558 1.253759 -0.030613
v 2.478467 2.332101 -0.038650
v 1.765337 1.608839 -0.030613
v 2.151525 1.371382 -0.039073
v 1.530678 1.068787 -0.030027
v 2.143760 1.374614 -0.038677
v 1.663629 1.128480 -0.030562
v 2.650218 1.221134 -0.038677
v 1.974918 1.014771 -0.030562
v 0.453716 0.801130 -0.030027
v -0.310573 0.801130 -0.030027
vn -0.0000 1.0000 -0.0000
vn -0.0000 -0.6605 -0.7508
vn 1.0000 -0.0000 -0.0000
vn -0.3431 -0.9393 -0.0000
vn -0.0000 -0.9584 -0.2855
vn -1.0000 -0.0000 -0.0000
vn -0.0000 0.5582 0.8297
vn 0.8950 0.4461 -0.0000
vn -0.0000 0.6139 -0.7894
vn -0.9705 0.2410 -0.0000
vn 0.1908 -0.0194 0.9814
vn 0.1611 -0.0164 -0.9868
vn -0.8982 0.4396 -0.0000
vn 0.4972 0.8676 -0.0000
vn 0.0767 -0.0022 -0.9971
vn 0.0767 -0.0022 0.9971
vn 0.1457 -0.9893 -0.0000
vn -0.3654 0.9309 -0.0000
vn -0.7121 0.7021 -0.0000
vn 0.1966 -0.0856 -0.9767
vn 0.2320 -0.1010 0.9675
vn 0.9243 -0.3818 -0.0000
vn -0.3843 -0.9232 -0.0000
vn 0.4448 -0.8956 0.0093
vn 0.4445 -0.8957 -0.0100
vn 0.4096 -0.9123 -0.0000
vn 0.2922 -0.9563 -0.0000
vn 0.0653 0.2000 -0.9776
vn 0.0771 0.2360 0.9687
vn 0.2900 0.9570 -0.0000
vn -0.0000 -0.0000 1.0000
vn -0.0000 0.4082 0.9129
vn -0.0000 0.7462 0.6658
vn -0.0000 -0.9905 -0.1379
vn -0.0000 -0.9353 0.3539
vn -0.0000 0.9462 0.3235
vn -0.0000 -0.0000 -1.0000
vn -0.0000 0.9823 -0.1875
vn -0.0000 0.3969 -0.9179
vn -0.0000 0.7322 -0.6811
vn -0.0000 -0.9859 0.1672
vn -0.0000 -0.3284 0.9445
vn 0.7291 -0.6525 0.2066
vn -0.0000 -0.3284 -0.9445
vn -0.7268 -0.6553 -0.2060
vn -0.7291 -0.6525 0.2066
vn 0.7268 -0.6553 -0.2060
vn -0.0000 -0.6605 0.7508
vt 0.450128 0.125000
vt 0.549872 0.125000
vt 0.549872 0.174872
vt 0.450128 0.174872
vt 0.422036 0.375000
vt 0.577965 0.375000
vt 0.577964 0.464599
vt 0.422036 0.464600
vt 0.418114 0.570369
vt 0.581886 0.570369
vt 0.450143 0.874995
vt 0.450143 0.850985
vt 0.173806 0.670342
vt 0.173806 0.579658
vt 0.625000 0.625000
vt 0.875000 0.625000
vt 0.875000 0.750000
vt 0.625000 0.750000
vt 0.625000 0.250000
vt 0.375000 0.250000
vt 0.375000 0.125000
vt 0.549872 0.075128
vt 0.450128 0.075128
vt 0.375000 0.000000
vt 0.625000 0.000000
vt 0.625000 0.125000
vt 0.450143 0.907694
vt 0.549857 0.907694
vt 0.625000 1.000000
vt 0.375000 1.000000
vt 0.549857 0.875000
vt 0.549857 0.842306
vt 0.625000 0.875000
vt 0.450143 0.875000
vt 0.375000 0.875000
vt 0.450143 0.842306
vt 0.375000 0.750000
vt 0.450143 0.875000
vt 0.549857 0.875000
vt 0.549857 0.907694
vt 0.450143 0.907694
vt 0.549857 0.874994
vt 0.549857 0.898953
vt 0.549857 0.874994
vt 0.549857 0.875000
vt 0.000000 0.000000
vt 0.549857 0.874987
vt 0.549857 0.883808
vt 0.549857 0.851035
vt 0.549857 0.866166
vt 0.549857 0.874987
vt 0.450143 0.874989
vt 0.450143 0.866410
vt 0.450143 0.899005
vt 0.450143 0.883569
vt 0.450143 0.874989
vt 0.581886 0.679631
vt 0.625000 0.500000
vt 0.418114 0.679631
vt 0.375000 0.500000
vt 0.326194 0.670342
vt 0.125000 0.750000
vt 0.326194 0.579658
vt 0.125000 0.500000
vt 0.577965 0.285400
vt 0.625000 0.375000
vt 0.422035 0.285400
vt 0.375000 0.375000
vt 0.875000 0.500000
s 0
f 85/1/1 86/2/1 7/3/1 3/4/1
f 104/5/2 103/6/2 56/7/2 55/8/2
f 62/9/3 61/10/3 57/10/3 60/9/3
f 100/11/4 27/12/4 51/12/4 102/11/4
f 16/13/5 6/14/5 72/14/5 70/13/5
f 84/15/6 83/16/6 67/17/6 80/18/6
f 3/4/7 7/3/7 54/19/7 53/20/7
f 85/1/8 3/4/8 53/20/8 81/21/8
f 5/22/9 1/23/9 65/24/9 67/25/9
f 86/2/10 5/22/10 67/25/10 83/26/10
f 4/27/3 9/28/3 53/29/3 78/30/3
f 87/31/3 11/32/3 65/18/3 81/33/3
f 88/34/3 4/27/3 78/30/3 82/35/3
f 11/32/3 2/36/3 79/37/3 65/18/3
f 90/38/3 89/39/3 34/28/3 41/27/3
f 36/40/11 44/41/11 41/27/11 34/28/11
f 21/36/12 24/32/12 19/32/12 20/36/12
f 94/42/13 23/43/13 40/43/13 96/44/13
f 87/31/14 9/28/14 36/40/14 91/45/14
f 2/36/15 11/32/15 35/32/15 43/36/15
f 9/28/16 4/27/16 44/41/16 36/40/16
f 88/34/17 2/36/17 43/36/17 92/38/17
f 30/46/1 29/46/1 33/46/1 42/46/1
f 31/36/1 30/36/1 42/36/1 43/36/1
f 29/32/1 32/32/1 35/32/1 33/32/1
f 32/32/1 31/36/1 43/36/1 35/32/1
f 20/36/1 19/32/1 29/32/1 30/36/1
f 21/36/1 20/36/1 30/36/1 31/36/1
f 19/32/1 24/32/1 32/32/1 29/32/1
f 24/32/1 21/36/1 31/36/1 32/32/1
f 93/47/18 17/48/18 34/28/18 89/39/18
f 28/49/18 25/50/18 33/32/18 35/32/18
f 17/48/18 23/43/18 36/40/18 34/28/18
f 94/42/18 28/49/18 35/32/18 91/45/18
f 96/44/19 40/43/19 38/48/19 95/51/19
f 25/50/20 28/49/20 39/49/20 37/50/20
f 23/43/21 17/48/21 38/48/21 40/43/21
f 93/47/22 25/50/22 37/50/22 95/51/22
f 97/34/1 46/36/1 42/36/1 90/38/1
f 46/36/1 47/36/1 43/36/1 42/36/1
f 48/41/1 45/27/1 41/27/1 44/41/1
f 98/38/1 48/41/1 44/41/1 92/38/1
f 99/52/23 26/53/23 46/36/23 97/34/23
f 26/53/24 27/12/24 47/36/24 46/36/24
f 22/54/25 18/55/25 45/27/25 48/41/25
f 100/11/26 22/54/26 48/41/26 98/38/26
f 102/11/27 51/12/27 50/53/27 101/56/27
f 27/12/28 26/53/28 50/53/28 51/12/28
f 18/55/29 22/54/29 52/54/29 49/55/29
f 99/52/30 18/55/30 49/55/30 101/56/30
f 10/57/31 13/10/31 53/58/31 54/18/31
f 14/9/31 8/59/31 77/37/31 78/60/31
f 13/10/31 14/9/31 78/60/31 53/58/31
f 8/59/31 10/57/31 54/18/31 77/37/31
f 60/9/32 57/10/32 58/57/32 59/59/32
f 61/10/33 63/57/33 58/57/33 57/10/33
f 63/57/6 64/59/6 59/59/6 58/57/6
f 64/59/34 62/9/34 60/9/34 59/59/34
f 8/59/35 14/9/35 62/9/35 64/59/35
f 10/57/6 8/59/6 64/59/6 63/57/6
f 13/10/36 10/57/36 63/57/36 61/10/36
f 14/9/3 13/10/3 61/10/3 62/9/3
f 16/13/37 15/61/37 65/37/37 79/62/37
f 15/61/37 12/63/37 67/60/37 65/37/37
f 6/14/37 16/13/37 79/62/37 80/64/37
f 12/63/37 6/14/37 80/64/37 67/60/37
f 72/14/6 71/63/6 75/63/6 76/14/6
f 15/61/3 16/13/3 70/13/3 69/61/3
f 6/14/6 12/63/6 71/63/6 72/14/6
f 12/63/38 15/61/38 69/61/38 71/63/38
f 76/14/39 75/63/39 73/61/39 74/13/39
f 71/63/40 69/61/40 73/61/40 75/63/40
f 70/13/41 72/14/41 76/14/41 74/13/41
f 69/61/3 70/13/3 74/13/3 73/61/3
f 55/8/42 56/7/42 78/58/42 77/60/42
f 103/6/43 66/65/43 79/19/43 82/66/43
f 66/65/44 68/67/44 80/20/44 79/19/44
f 104/5/45 55/8/45 77/60/45 84/68/45
f 68/67/46 104/5/46 84/68/46 80/20/46
f 56/7/47 103/6/47 82/66/47 78/58/47
f 26/53/30 99/52/30 101/56/30 50/53/30
f 52/54/27 102/11/27 101/56/27 49/55/27
f 27/12/26 100/11/26 98/38/26 47/36/26
f 18/55/23 99/52/23 97/34/23 45/27/23
f 47/36/1 98/38/1 92/38/1 43/36/1
f 45/27/1 97/34/1 90/38/1 41/27/1
f 17/48/22 93/47/22 95/51/22 38/48/22
f 39/49/19 96/44/19 95/51/19 37/50/19
f 23/43/18 94/42/18 91/45/18 36/40/18
f 25/50/18 93/47/18 89/39/18 33/32/18
f 4/27/17 88/34/17 92/38/17 44/41/17
f 11/32/14 87/31/14 91/45/14 35/32/14
f 28/49/13 94/42/13 96/44/13 39/49/13
f 42/36/3 33/32/3 89/39/3 90/38/3
f 2/36/3 88/34/3 82/35/3 79/37/3
f 9/28/3 87/31/3 81/33/3 53/29/3
f 7/3/10 86/2/10 83/26/10 54/19/10
f 1/23/8 85/1/8 81/21/8 65/24/8
f 77/58/6 54/69/6 83/16/6 84/15/6
f 22/54/4 100/11/4 102/11/4 52/54/4
f 68/67/48 66/65/48 103/6/48 104/5/48
f 1/23/1 5/22/1 86/2/1 85/1/1
